<svg width="30" height="30" viewBox="0 0 30 30" fill="none" xmlns="http://www.w3.org/2000/svg">
<rect width="30" height="30" rx="15" transform="matrix(-1 0 0 1 30 0)" fill="url(#paint0_linear)"/>
<path fill-rule="evenodd" clip-rule="evenodd" d="M15.0002 6.00868C14.7022 6.00868 14.4054 6.00653 14.1109 6.00441C10.762 5.98025 7.70516 5.95819 6.47616 9.10985C5.98815 10.3612 5.99396 11.9428 6.00193 14.1108C6.00298 14.3964 6.00406 14.6922 6.00406 14.9987C6.00406 15.2478 6.0032 15.4952 6.00235 15.7402C5.99529 17.7688 5.98881 19.633 6.47616 20.8866C7.70224 24.0398 10.7824 24.0174 14.1135 23.9931L14.114 23.9931C14.4071 23.9909 14.7022 23.9888 14.9982 23.9888C15.3071 23.9888 15.6169 23.9916 15.9258 23.9944H15.9261H15.9263H15.9265C19.1482 24.0237 22.2864 24.0522 23.5212 20.8866C24.0095 19.6244 24.0037 18.0652 23.9955 15.898L23.9955 15.8969C23.9945 15.6085 23.9933 15.3094 23.9933 14.9987C23.9933 14.6624 23.9951 14.3375 23.9968 14.0234C24.0131 11.0577 24.024 9.0564 22.4826 7.51716C20.9353 5.971 18.899 5.98474 16.025 6.00413C15.6934 6.00636 15.3506 6.00868 14.9962 6.00868H15.0002ZM14.1941 7.62875C14.7055 7.62794 15.1872 7.62341 15.6407 7.61914C22.0071 7.55923 22.8264 7.55152 22.3222 18.6284C22.148 22.4391 19.4953 22.41 16.0659 22.3724H16.0659H16.0658H16.0657C15.7183 22.3686 15.3629 22.3647 15.0012 22.3647C7.83355 22.3647 7.62745 22.1597 7.62745 14.9947C7.62745 7.74643 8.19599 7.63281 14.1941 7.62672V7.62875ZM18.7232 10.1994C18.7232 9.60389 19.2064 9.12101 19.8024 9.12101C20.3983 9.12101 20.8816 9.60389 20.8816 10.1994C20.8816 10.7949 20.3983 11.2777 19.8024 11.2777C19.2064 11.2777 18.7232 10.7949 18.7232 10.1994ZM15.0002 10.382C12.4489 10.382 10.3808 12.4494 10.3808 14.9987C10.3808 17.548 12.4489 19.6145 15.0002 19.6145C17.5516 19.6145 19.6186 17.548 19.6186 14.9987C19.6186 12.4494 17.5516 10.382 15.0002 10.382ZM15.0002 12.002C18.9648 12.002 18.9699 17.9954 15.0002 17.9954C11.0367 17.9954 11.0306 12.002 15.0002 12.002Z" fill="white"/>
<defs>
<linearGradient id="paint0_linear" x1="-15" y1="15" x2="15" y2="45" gradientUnits="userSpaceOnUse">
<stop stop-color="#C937AA"/>
<stop offset="0.509317" stop-color="#FB5246"/>
<stop offset="1" stop-color="#FFDA55"/>
</linearGradient>
</defs>
</svg>
