<svg width="24" height="23" viewBox="0 0 24 23" fill="none" xmlns="http://www.w3.org/2000/svg">
<path d="M18 10.8499H19.1235V14.1048H18V10.8499Z" fill="#616161"/>
<path d="M20.247 8.67993H21.3705V16.2749H20.247V8.67993Z" fill="#616161"/>
<path d="M22.4939 7.59497H23.6174V17.3599H22.4939V7.59497Z" fill="#616161"/>
<path d="M12.3582 0H3.37042C1.34817 0 0 2.38698 0 4.33997V18.4449C0 20.3978 1.34817 22.7848 3.37042 22.7848H12.3582C14.3805 22.7848 15.7286 20.5063 15.7286 18.4449V4.33997C15.7286 2.49548 14.3805 0 12.3582 0ZM14.6052 18.4449C14.6052 19.9638 13.9311 21.6998 12.3582 21.6998H3.37042C1.79756 21.6998 1.12347 19.9638 1.12347 18.4449V16.2749L14.7175 16.1664L14.6052 18.4449ZM14.6052 15.1899H1.12347V4.33997C1.01113 2.27848 1.79756 1.08499 3.37042 1.08499H12.3582C13.9311 1.08499 14.6052 2.82098 14.6052 4.33997V15.1899Z" fill="#616161"/>
<path d="M6.74084 18.4448H8.98779V20.6148H6.74084V18.4448Z" fill="#616161"/>
</svg>
