<svg width="27" height="27" viewBox="0 0 27 27" fill="none" xmlns="http://www.w3.org/2000/svg">
<path fill-rule="evenodd" clip-rule="evenodd" d="M19.6274 26.6414L19.5707 26.6413C17.7866 26.6324 15.8426 26.1805 13.7927 25.2982C13.2802 25.0775 13.0439 24.484 13.265 23.9725C13.4861 23.461 14.0808 23.2252 14.5934 23.4459C16.3668 24.2092 18.0915 24.6167 19.5808 24.6241L19.6269 24.6242C21.4903 24.6242 23.0459 24.0591 24.1298 22.9885L24.137 22.9806C24.7963 22.2476 24.7562 21.1376 24.0455 20.4538C21.3316 17.8423 20.0504 18.0317 18.8645 19.1857L16.9772 21.0551C16.6811 21.3483 16.235 21.43 15.8539 21.2606C15.7471 21.2131 13.2044 20.0649 10.3391 17.2055L10.2061 17.0729C7.34035 14.2132 6.18973 11.6759 6.14217 11.5693C5.97247 11.189 6.05429 10.7438 6.34811 10.4484L8.22172 8.56462C9.37801 7.38135 9.56753 6.10287 6.95066 3.39487C6.26538 2.68571 5.15306 2.64566 4.41835 3.30369L4.41062 3.31065C3.32892 4.40127 2.76225 5.97034 2.77165 7.85016C2.78979 11.4737 4.84842 15.6819 8.27908 19.1093L8.28853 19.1187C8.94365 19.7724 9.69185 20.4222 10.5124 21.05C10.9554 21.3889 11.0391 22.022 10.6995 22.4641C10.3597 22.9061 9.7253 22.9897 9.28234 22.6508C8.39582 21.9725 7.58379 21.2672 6.86859 20.5545L6.85909 20.5451C3.05471 16.7488 0.770984 12.0068 0.750264 7.86035C0.738034 5.41943 1.5158 3.34661 2.99957 1.86605C3.01236 1.85329 3.0255 1.84083 3.03899 1.82878L3.068 1.80276C3.81337 1.13505 4.77524 0.787378 5.77583 0.823335C6.77661 0.859343 7.71064 1.2754 8.40583 1.9948C9.767 3.40339 10.5527 4.58358 10.8786 5.70885C11.3276 7.25956 10.9192 8.69574 9.66486 9.9774L9.65915 9.9832L8.30278 11.3469C8.7837 12.1982 9.84068 13.8557 11.6352 15.6464L11.7682 15.779C13.5746 17.5816 15.2261 18.6297 16.0757 19.106L17.4435 17.7512L17.4493 17.7455C18.7337 16.4937 20.1728 16.0861 21.7268 16.5343C22.8545 16.8595 24.0371 17.6436 25.4487 19.0019C26.1696 19.6955 26.5865 20.6276 26.6226 21.6264C26.6587 22.6251 26.3101 23.5847 25.6412 24.3284L25.615 24.3575C25.6029 24.371 25.5905 24.3841 25.5776 24.3969C24.1054 25.8658 22.0488 26.6414 19.6274 26.6414ZM20.2442 11.8651C20.7794 11.707 21.0849 11.1458 20.9264 10.6117L20.9127 10.5654L20.9127 10.5653C20.7568 10.0367 20.4666 9.0527 19.4214 8.00968C18.3373 6.92784 17.2969 6.64069 16.7967 6.50264L16.7966 6.50259C16.2584 6.35407 15.7018 6.66896 15.553 7.2059C15.4042 7.74279 15.7197 8.29839 16.2578 8.44686C16.6667 8.55973 17.2847 8.73029 17.992 9.43607C18.6728 10.1155 18.8537 10.7288 18.9735 11.1347L18.9735 11.1348L18.9881 11.1842C19.1182 11.6228 19.5207 11.9068 19.9568 11.9068C20.0518 11.9069 20.1485 11.8934 20.2442 11.8651ZM22.2773 5.15395C24.4081 7.28028 25.5736 10.1131 25.5592 13.1308C25.5565 13.6861 25.1045 14.1346 24.5486 14.1346H24.5437C23.9855 14.1319 23.5351 13.6782 23.5378 13.1212C23.5496 10.6461 22.5943 8.32315 20.8479 6.5804C19.1158 4.85192 16.8077 3.9016 14.3445 3.9016L14.294 3.9017C13.738 3.9017 13.286 3.45326 13.2833 2.89787C13.2807 2.34085 13.731 1.88713 14.2893 1.88445L14.3448 1.88435C17.348 1.88435 20.1631 3.04417 22.2773 5.15395Z" fill="#32C220"/>
</svg>
